<svg width="17" height="16" viewBox="0 0 17 16" fill="none" xmlns="http://www.w3.org/2000/svg">
<g id="Frame" clip-path="url(#clip0_1_29)">
<path id="Vector" d="M16.4561 13.8656L12.5418 10.125C13.4319 8.86218 13.8711 7.28436 13.636 5.60311C13.2351 2.74343 10.7825 0.416239 7.78702 0.053833C3.33343 -0.484698 -0.411533 3.09405 0.152042 7.34999C0.531378 10.2137 2.96697 12.5594 5.9598 12.9406C7.71913 13.1653 9.37055 12.7457 10.6917 11.895L14.606 15.6356C15.1168 16.1237 15.9452 16.1237 16.456 15.6356C16.9663 15.1469 16.9663 14.3531 16.4561 13.8656ZM2.68234 6.49999C2.68234 4.29436 4.56005 2.49999 6.86811 2.49999C9.17618 2.49999 11.0539 4.29436 11.0539 6.49999C11.0539 8.70561 9.17618 10.5 6.86811 10.5C4.56005 10.5 2.68234 8.70624 2.68234 6.49999Z" fill="white"/>
</g>
<defs>
<clipPath id="clip0_1_29">
<rect width="16.7431" height="16" fill="white" transform="translate(0.0957031)"/>
</clipPath>
</defs>
</svg>
