<svg width="16" height="14" viewBox="0 0 16 14" fill="none" xmlns="http://www.w3.org/2000/svg">
<g id="Frame" clip-path="url(#clip0_1_8)">
<path id="Vector" d="M2.66667 10.0625C2.66667 9.82187 2.86667 9.625 3.11111 9.625H4.88889C5.13333 9.625 5.33333 9.82187 5.33333 10.0625C5.33333 10.3031 5.13333 10.5 4.88889 10.5H3.11111C2.86667 10.5 2.66667 10.3031 2.66667 10.0625ZM6.22222 10.0625C6.22222 9.82187 6.42222 9.625 6.66667 9.625H10.2222C10.4667 9.625 10.6667 9.82187 10.6667 10.0625C10.6667 10.3031 10.4667 10.5 10.2222 10.5H6.66667C6.42222 10.5 6.22222 10.3031 6.22222 10.0625ZM0 2.625C0 1.6584 0.795833 0.875 1.77778 0.875H14.2222C15.2028 0.875 16 1.6584 16 2.625V11.375C16 12.3402 15.2028 13.125 14.2222 13.125H1.77778C0.795833 13.125 0 12.3402 0 11.375V2.625ZM0.888889 2.625V3.5H15.1111V2.625C15.1111 2.14184 14.7139 1.75 14.2222 1.75H1.77778C1.28694 1.75 0.888889 2.14184 0.888889 2.625ZM0.888889 6.125H15.1111V4.375H0.888889V6.125ZM0.888889 7V11.375C0.888889 11.859 1.28694 12.25 1.77778 12.25H14.2222C14.7139 12.25 15.1111 11.859 15.1111 11.375V7H0.888889Z" fill="#FF7F0A"/>
</g>
<defs>
<clipPath id="clip0_1_8">
<rect width="16" height="14" fill="white"/>
</clipPath>
</defs>
</svg>
