<svg width="40" height="40" viewBox="0 0 40 40" fill="none" xmlns="http://www.w3.org/2000/svg">
<g id="Frame 1">
<circle id="Ellipse 2" cx="20" cy="20" r="20" fill="#171D25"/>
<path id="Vector" d="M9.6875 16.25H28.6539L24.327 20.1836C24.0584 20.4277 24.0584 20.8234 24.327 21.0672C24.5955 21.311 25.0308 21.3113 25.2989 21.0672L30.7989 16.0671C30.9312 15.9453 31 15.7851 31 15.625C31 15.4648 30.9329 15.3051 30.7986 15.1832L25.2986 10.1831C25.03 9.93896 24.5947 9.93896 24.3266 10.1831C24.0585 10.4273 24.0581 10.823 24.3266 11.0667L28.6539 15H9.6875C9.30748 15 9 15.2812 9 15.625C9 15.9687 9.30748 16.25 9.6875 16.25ZM30.3125 23.75H11.3474L15.6743 19.8164C15.9429 19.5723 15.9429 19.1766 15.6743 18.9328C15.4058 18.689 14.9705 18.6887 14.7024 18.9328L9.20238 23.9329C9.06716 24.0547 9 24.2149 9 24.375C9 24.5352 9.06712 24.6949 9.20144 24.8168L14.7014 29.8169C14.97 30.061 15.4053 30.061 15.6734 29.8169C15.9415 29.5728 15.9419 29.177 15.6734 28.9333L11.3474 25H30.3125C30.6925 25 31 24.7205 31 24.375C31 24.0296 30.6906 23.75 30.3125 23.75Z" fill="#FF7F0A"/>
</g>
</svg>
