<svg width="12" height="16" viewBox="0 0 12 16" fill="none" xmlns="http://www.w3.org/2000/svg">
<path id="Vector" d="M8.30446 6C8.30446 7.38125 7.32591 8.5 6.11775 8.5C4.90959 8.5 3.93103 7.38125 3.93103 6C3.93103 4.61875 4.90959 3.5 6.11775 3.5C7.32591 3.5 8.30446 4.61875 8.30446 6ZM6.11775 7.5C6.8421 7.5 7.42978 6.82812 7.42978 6C7.42978 5.17188 6.8421 4.5 6.11775 4.5C5.3934 4.5 4.80572 5.17188 4.80572 6C4.80572 6.82812 5.3934 7.5 6.11775 7.5ZM11.3659 6C11.3659 8.73125 8.16779 13.5938 6.76556 15.6C6.42936 16.0781 5.80614 16.0781 5.46993 15.6C4.0431 13.5938 0.869629 8.73125 0.869629 6C0.869629 2.68625 3.21926 0 6.11775 0C9.01515 0 11.3659 2.68625 11.3659 6ZM6.11775 1C3.70143 1 1.74432 3.2375 1.74432 6C1.74432 6.4875 1.89274 7.15625 2.19697 7.98125C2.49518 8.79062 2.91421 9.66875 3.38818 10.5469C4.31917 12.275 5.42347 13.9281 6.11775 14.925C6.81203 13.9281 7.91632 12.275 8.84841 10.5469C9.32129 9.66875 9.7395 8.79062 10.0374 7.98125C10.3436 7.15625 10.4912 6.4875 10.4912 6C10.4912 3.2375 8.53407 1 6.11775 1Z" fill="#FF7F0A"/>
</svg>
