<svg width="16" height="16" viewBox="0 0 16 16" fill="none" xmlns="http://www.w3.org/2000/svg">
<g id="Frame" clip-path="url(#clip0_1_23)">
<path id="Vector" d="M2.83593 8.25C2.83593 7.55937 3.42161 7 4.14398 7H6.76009C7.48279 7 8.06814 7.55937 8.06814 8.25V10.75C8.06814 11.4406 7.48279 12 6.76009 12H4.14398C3.42161 12 2.83593 11.4406 2.83593 10.75V8.25ZM3.88237 8.25V10.75C3.88237 10.8875 3.99944 11 4.14398 11H6.76009C6.90398 11 7.0217 10.8875 7.0217 10.75V8.25C7.0217 8.1125 6.90398 8 6.76009 8H4.14398C3.99944 8 3.88237 8.1125 3.88237 8.25ZM4.92881 2H11.2075V0.5C11.2075 0.223875 11.4429 0 11.7307 0C12.0185 0 12.2539 0.223875 12.2539 0.5V2H13.3004C14.4547 2 15.3932 2.89531 15.3932 4V14C15.3932 15.1031 14.4547 16 13.3004 16H2.83593C1.67994 16 0.743042 15.1031 0.743042 14V4C0.743042 2.89531 1.67994 2 2.83593 2H3.88237V0.5C3.88237 0.223875 4.11782 0 4.40559 0C4.69337 0 4.92881 0.223875 4.92881 0.5V2ZM1.78949 14C1.78949 14.5531 2.2581 15 2.83593 15H13.3004C13.8792 15 14.3468 14.5531 14.3468 14V6H1.78949V14ZM1.78949 4V5H14.3468V4C14.3468 3.44688 13.8792 3 13.3004 3H2.83593C2.2581 3 1.78949 3.44688 1.78949 4Z" fill="#FF7F0A"/>
</g>
<defs>
<clipPath id="clip0_1_23">
<rect width="14.6502" height="16" fill="white" transform="translate(0.743042)"/>
</clipPath>
</defs>
</svg>
