<svg width="14" height="14" viewBox="0 0 14 14" fill="none" xmlns="http://www.w3.org/2000/svg">
<g id="Frame" clip-path="url(#clip0_1_6)">
<path id="Vector" d="M13.8715 13.2535L10.0023 9.38438C10.8555 8.38906 11.3504 7.10117 11.3504 5.6875C11.3504 2.5457 8.80387 0 5.6629 0C2.52192 0 0 2.54652 0 5.6875C0 8.82848 2.54626 11.375 5.6629 11.375C7.07602 11.375 8.36583 10.8566 9.35977 10.0037L13.2289 13.8729C13.3383 13.9563 13.4504 14 13.5625 14C13.6746 14 13.7864 13.9573 13.8718 13.8718C14.0438 13.702 14.0438 13.423 13.8715 13.2535ZM5.68751 10.5C3.01055 10.5 0.875005 8.33984 0.875005 5.6875C0.875005 3.03516 3.01055 0.875 5.68751 0.875C8.36446 0.875 10.5 3.01055 10.5 5.6875C10.5 8.36445 8.33985 10.5 5.68751 10.5Z" fill="#FF7F0A"/>
</g>
<defs>
<clipPath id="clip0_1_6">
<rect width="14" height="14" fill="white"/>
</clipPath>
</defs>
</svg>
