<svg width="18" height="14" viewBox="0 0 18 14" fill="none" xmlns="http://www.w3.org/2000/svg">
<g id="Frame" clip-path="url(#clip0_1_10)">
<path id="Vector" d="M16.2 7.875V5.6875C16.2 4.48137 15.1912 3.5 13.9753 3.5C12.7595 3.5 11.7 4.48164 11.7 5.6875V7.875C10.7058 7.875 9.9 8.6584 9.9 9.625V12.25C9.9 13.2166 10.7058 14 11.7 14H16.2C17.1942 14 18 13.2166 18 12.25V9.625C18 8.65977 17.1928 7.875 16.2 7.875ZM12.6 5.6875C12.6 4.96289 13.2047 4.375 13.95 4.375C14.6953 4.375 15.3 4.96289 15.3 5.6875V7.875H12.6V5.6875ZM17.1 12.25C17.1 12.7323 16.6961 13.125 16.2 13.125H11.7C11.2039 13.125 10.8 12.7323 10.8 12.25V9.625C10.8 9.14266 11.2039 8.75 11.7 8.75H16.2C16.6961 8.75 17.1 9.14266 17.1 9.625V12.25ZM13.95 10.2812C13.5773 10.2812 13.275 10.5749 13.275 10.9375C13.275 11.2998 13.5773 11.5938 13.95 11.5938C14.3227 11.5938 14.625 11.2998 14.625 10.9375C14.625 10.5738 14.3241 10.2812 13.95 10.2812ZM6.3 7C8.28844 7 9.9 5.43293 9.9 3.5C9.9 1.56707 8.28844 0 6.3 0C4.31157 0 2.7 1.56707 2.7 3.5C2.7 5.43293 4.31157 7 6.3 7ZM6.3 0.875C7.78894 0.875 9 2.05242 9 3.5C9 4.9473 7.78894 6.125 6.3 6.125C4.81107 6.125 3.6 4.94648 3.6 3.5C3.6 2.05242 4.81219 0.875 6.3 0.875ZM4.87407 9.1875H7.72594C7.99358 9.1875 8.25357 9.21654 8.50529 9.26874C8.79413 9.32865 9.06497 9.09902 9.01435 8.81292C9.01407 8.80971 9.0138 8.80646 9.01347 8.8032C8.99611 8.60517 8.84806 8.44554 8.64756 8.40617C8.36438 8.34531 8.04938 8.3125 7.72594 8.3125H4.87407C2.18082 8.3125 -0.0032364 10.4344 3.6002e-06 13.0539C0.000661725 13.5734 0.439597 14 0.974816 14H8.55C8.79852 14 9 13.8041 9 13.5625C9 13.3208 8.79852 13.125 8.55 13.125H0.974816C0.934035 13.125 0.900004 13.0922 0.900004 13.0512C0.899722 10.9211 2.68313 9.1875 4.87407 9.1875Z" fill="#FF7F0A"/>
</g>
<defs>
<clipPath id="clip0_1_10">
<rect width="18" height="14" fill="white"/>
</clipPath>
</defs>
</svg>
